Coordinates
version=1
nRows=4
nColumns=114
inDegrees=yes

Units are S.I. units (second, meters, Newtons, ...)
If the header above contains a line with 'inDegrees', this indicates whether rotational values are in degrees (yes) or radians (no).

endheader 
time	pelvis_tilt	pelvis_list	pelvis_rotation	pelvis_tx	pelvis_ty	pelvis_tz	hip_flexion_l	hip_adduction_l	hip_rotation_l	hip_flexion_r	hip_adduction_r	hip_rotation_r	knee_angle_l	knee_angle_r	ankle_angle_l	ankle_angle_r	subtalar_angle_l	subtalar_angle_r	mtp_angle_l	mtp_angle_r	lumbar_extension	lumbar_bending	lumbar_rotation	arm_flex_l	arm_add_l	arm_rot_l	arm_flex_r	arm_add_r	arm_rot_r	elbow_flex_l	elbow_flex_r	pro_sup_l	pro_sup_r	addbrev_l/activation	addlong_l/activation	addmagDist_l/activation	addmagIsch_l/activation	addmagMid_l/activation	addmagProx_l/activation	bflh_l/activation	bfsh_l/activation	edl_l/activation	ehl_l/activation	fdl_l/activation	fhl_l/activation	gaslat_l/activation	gasmed_l/activation	glmax1_l/activation	glmax2_l/activation	glmax3_l/activation	glmed1_l/activation	glmed2_l/activation	glmed3_l/activation	glmin1_l/activation	glmin2_l/activation	glmin3_l/activation	grac_l/activation	iliacus_l/activation	perbrev_l/activation	perlong_l/activation	piri_l/activation	psoas_l/activation	recfem_l/activation	sart_l/activation	semimem_l/activation	semiten_l/activation	soleus_l/activation	tfl_l/activation	tibant_l/activation	tibpost_l/activation	vasint_l/activation	vaslat_l/activation	vasmed_l/activation	addbrev_r/activation	addlong_r/activation	addmagDist_r/activation	addmagIsch_r/activation	addmagMid_r/activation	addmagProx_r/activation	bflh_r/activation	bfsh_r/activation	edl_r/activation	ehl_r/activation	fdl_r/activation	fhl_r/activation	gaslat_r/activation	gasmed_r/activation	glmax1_r/activation	glmax2_r/activation	glmax3_r/activation	glmed1_r/activation	glmed2_r/activation	glmed3_r/activation	glmin1_r/activation	glmin2_r/activation	glmin3_r/activation	grac_r/activation	iliacus_r/activation	perbrev_r/activation	perlong_r/activation	piri_r/activation	psoas_r/activation	recfem_r/activation	sart_r/activation	semimem_r/activation	semiten_r/activation	soleus_r/activation	tfl_r/activation	tibant_r/activation	tibpost_r/activation	vasint_r/activation	vaslat_r/activation	vasmed_r/activation	
          1.50000000	         -3.01272546	         -1.91017961	          1.75913753	          1.03744877	          0.85377569	         -0.24373892	         28.85322566	        -14.39888806	         -5.82685331	         25.57157478	        -10.81516713	        -14.62540805	         41.71115462	         39.65290257	          8.70742071	         14.63231531	        -14.34863855	        -15.51739611	        -10.71191895	         -4.86166133	        -32.46166531	         -1.17955034	          0.93816506	         24.04775216	        -36.09168678	         17.79606446	         23.60705318	        -30.00724941	         16.42140913	         61.13763975	         50.33861200	         91.92191194	         98.58152219	          0.01904656	          0.02260901	          0.04302096	          0.04241894	          0.03362313	          0.01552632	          0.07177301	          0.01023357	          0.01010453	          0.01030680	          0.01614335	          0.03099126	          0.03932208	          0.05429176	          0.01938953	          0.04058228	          0.06395362	          0.01016046	          0.01028860	          0.01042108	          0.01022965	          0.01021094	          0.01024889	          0.01437770	          0.01008013	          0.01008635	          0.01005002	          0.01025919	          0.01010005	          0.01006079	          0.01010975	          0.09711534	          0.03078222	          0.14680957	          0.01010341	          0.01231172	          0.05645522	          0.03359266	          0.09786681	          0.04713534	          0.01420558	          0.01347884	          0.03539857	          0.03808914	          0.02672393	          0.01252069	          0.04666724	          0.01020480	          0.01020827	          0.01020619	          0.01032051	          0.01033309	          0.01242638	          0.02839857	          0.02064525	          0.03722661	          0.05558386	          0.01019446	          0.01036270	          0.01228674	          0.01026447	          0.01026648	          0.01032410	          0.01092989	          0.01010349	          0.01926610	          0.04055239	          0.01035756	          0.01012351	          0.01015641	          0.01012875	          0.05094702	          0.01784214	          0.08836202	          0.01013622	          0.01006394	          0.01018034	          0.04274389	          0.12335596	          0.06040542	
          1.52000000	         -3.37439932	         -1.71749032	          1.70434469	          1.04274302	          0.86173774	         -0.24572380	         26.81725403	        -13.96199934	         -7.01684092	         23.75717171	        -10.94591141	        -15.87202912	         37.98227574	         36.11782817	          7.77807685	         13.43468492	        -13.44156641	        -14.36334360	        -10.32135163	         -4.49963130	        -29.79215394	         -1.04148909	          0.63155673	         19.82773674	        -35.96310477	         17.09676125	         20.93555672	        -30.51336091	         16.78642455	         57.80603435	         46.98299341	         87.32555787	         94.81541743	          0.01932518	          0.02484487	          0.03931902	          0.04045430	          0.03119838	          0.01535125	          0.05450686	          0.01025338	          0.01009976	          0.01032475	          0.01522283	          0.02245643	          0.03846781	          0.05612478	          0.01602481	          0.03347433	          0.05854934	          0.01014943	          0.01025678	          0.01037560	          0.01022521	          0.01021002	          0.01024563	          0.01396059	          0.01009482	          0.01007089	          0.01003357	          0.01025837	          0.01012155	          0.01006956	          0.01012371	          0.08562528	          0.02791600	          0.13077727	          0.01010982	          0.01219269	          0.03769845	          0.02855015	          0.08318989	          0.04035024	          0.02060864	          0.02893006	          0.03442362	          0.03544262	          0.02868843	          0.01508155	          0.04226848	          0.01022805	          0.01023491	          0.01022360	          0.01032221	          0.01032414	          0.01174800	          0.02511969	          0.01482497	          0.02575543	          0.04990307	          0.01016981	          0.01029442	          0.01034504	          0.01024212	          0.01023821	          0.01028610	          0.01208214	          0.01012958	          0.01868884	          0.03864952	          0.01032355	          0.01016517	          0.01016167	          0.01014331	          0.04620784	          0.01717383	          0.07696661	          0.01013795	          0.01007120	          0.01018153	          0.03565212	          0.10476541	          0.05063633	
          1.54000000	         -3.81737203	         -1.53454818	          1.65225900	          1.04800508	          0.86873652	         -0.24749544	         24.88680518	        -13.53318061	         -8.36306766	         22.08132013	        -10.99966871	        -17.13539169	         34.24000032	         32.63614754	          6.88305759	         12.24536184	        -12.41712084	        -13.19053118	         -9.87497046	         -4.14109704	        -27.03975800	         -0.94639281	          0.34399937	         15.70655080	        -35.78067368	         16.67788932	         18.25762975	        -31.06181587	         17.13545705	         54.47293755	         44.08096837	         82.61869031	         90.99258566	          0.02038590	          0.02967343	          0.03555701	          0.03616016	          0.02936682	          0.01541563	          0.05338925	          0.01027482	          0.01017695	          0.01023004	          0.01042379	          0.01504681	          0.02828972	          0.06073401	          0.01315662	          0.02550601	          0.05083329	          0.01014444	          0.01023623	          0.01031976	          0.01022802	          0.01021314	          0.01024567	          0.01367871	          0.01011738	          0.01039937	          0.01114214	          0.01025599	          0.01015467	          0.01008420	          0.01014173	          0.07442919	          0.02437410	          0.11588362	          0.01012032	          0.01007556	          0.02514761	          0.02405273	          0.07065671	          0.03402392	          0.02684090	          0.04493265	          0.03401628	          0.03351218	          0.03103634	          0.01782744	          0.03801660	          0.01024979	          0.01026803	          0.01024049	          0.01031935	          0.01030985	          0.01118127	          0.02232901	          0.01112173	          0.01750449	          0.04463824	          0.01013264	          0.01021226	          0.01027775	          0.01022121	          0.01021349	          0.01025194	          0.01353436	          0.01016985	          0.01836980	          0.03790733	          0.01027610	          0.01024638	          0.01017655	          0.01015915	          0.03984276	          0.01617016	          0.06708987	          0.01013644	          0.01007778	          0.01017740	          0.03013450	          0.08946018	          0.04311624	
          1.56000000	         -4.30975843	         -1.36854861	          1.60966238	          1.05314575	          0.87471847	         -0.24904752	         23.05369283	        -13.11097065	         -9.86399797	         20.52841769	        -10.97055135	        -18.39222977	         30.52571270	         29.23561712	          6.03514006	         11.07820758	        -11.27643295	        -12.02621302	         -9.37818730	         -3.79544909	        -24.25849169	         -0.88601872	          0.06772625	         11.71178718	        -35.56225730	         16.53070329	         15.58075369	        -31.63939138	         17.43197131	         51.20374890	         41.65243665	         77.91636262	         87.20832137	          0.01875503	          0.02718296	          0.03096528	          0.03180866	          0.02585399	          0.01432419	          0.04475142	          0.01029510	          0.01022493	          0.01023092	          0.01034881	          0.01039096	          0.02519868	          0.05897855	          0.01212495	          0.02147978	          0.04419485	          0.01015002	          0.01024046	          0.01031279	          0.01023560	          0.01022318	          0.01025619	          0.01285078	          0.01013767	          0.01501922	          0.03204070	          0.01027413	          0.01018244	          0.01009818	          0.01016024	          0.06479372	          0.02133206	          0.10202153	          0.01013204	          0.01007688	          0.01678892	          0.02020323	          0.05880998	          0.02842127	          0.02760618	          0.04756514	          0.03143857	          0.03033051	          0.02983503	          0.01801110	          0.03268735	          0.01026841	          0.01031618	          0.01025446	          0.01030715	          0.01028290	          0.01065209	          0.01911540	          0.01049162	          0.01219715	          0.03916183	          0.01012338	          0.01019145	          0.01023289	          0.01021616	          0.01020751	          0.01024227	          0.01363575	          0.01021246	          0.01965365	          0.04107453	          0.01027096	          0.01032980	          0.01020211	          0.01017658	          0.03352032	          0.01477245	          0.05872985	          0.01014176	          0.01008200	          0.01016010	          0.02600350	          0.07771779	          0.03730582	
